<?xml version="1.0" encoding="utf-8"?>
<!-- Generator: Adobe Illustrator 15.0.0, SVG Export Plug-In . SVG Version: 6.00 Build 0)  -->
<!DOCTYPE svg PUBLIC "-//W3C//DTD SVG 1.1//EN" "http://www.w3.org/Graphics/SVG/1.1/DTD/svg11.dtd">
<svg version="1.1" id="Layer_1" xmlns="http://www.w3.org/2000/svg" xmlns:xlink="http://www.w3.org/1999/xlink" x="0px" y="0px"
	 width="283.465px" height="283.465px" viewBox="0 0 283.465 283.465" enable-background="new 0 0 283.465 283.465"
	 xml:space="preserve">
<rect fill="#FFFFFF" width="283.465" height="283.465"/>
<g>
	<defs>
		<rect id="SVGID_1_" width="283.465" height="283.465"/>
	</defs>
	<clipPath id="SVGID_2_">
		<use xlink:href="#SVGID_1_"  overflow="visible"/>
	</clipPath>
	<path clip-path="url(#SVGID_2_)" fill="#A5A7A9" d="M116.051,87.062c0,0-0.284-2.985-1.302-4.777c0,0-1.89-3.316-6.307-3.316
		c0,0-3.164,0-5.31,2.287c0,0-2.146,2.282-2.271,5.806H116.051z M114.362,76.328c0,0,2.734,1.367,4.166,3.535
		c0,0,1.378,2.069,1.836,4.825c0,0,0.408,1.89,0.408,6.024h-20.042c0,0,0.131,4.161,1.966,6.677c0,0,1.841,2.516,5.697,2.516
		c0,0,3.6,0,5.74-2.375c0,0,1.226-1.377,1.738-3.191h4.52c0,0-0.18,1.509-1.187,3.355c0,0-1.008,1.852-2.26,3.028
		c0,0-2.092,2.042-5.185,2.756c0,0-1.656,0.408-3.753,0.408c0,0-5.103,0-8.654-3.714c0,0-3.545-3.714-3.545-10.403
		c0,0,0-6.584,3.573-10.696c0,0,3.572-4.112,9.345-4.112C108.725,74.961,111.634,74.961,114.362,76.328 M68.26,65.289h4.596v13.986
		c0,0,1.634-2.065,2.936-2.909c0,0,2.216-1.454,5.539-1.454c0,0,5.947,0,8.066,4.161c0,0,1.149,2.271,1.149,6.307v17.537h-4.722
		V85.685c0,0,0-3.012-0.768-4.417c0,0-1.247-2.249-4.695-2.249c0,0-2.859,0-5.185,1.966c0,0-2.32,1.966-2.32,7.428v14.504H68.26
		V65.289z M64.224,65.414v4.466H51.588v33.037h-5.158V69.88H33.795v-4.466H64.224z"/>
	<path clip-path="url(#SVGID_2_)" fill="#292C2C" d="M159.132,136.079c0,0-0.277-2.985-1.301-4.777c0,0-1.891-3.317-6.308-3.317
		c0,0-3.164,0-5.31,2.288c0,0-2.146,2.282-2.271,5.806H159.132z M157.448,125.344c0,0,2.729,1.367,4.161,3.535
		c0,0,1.378,2.069,1.836,4.825c0,0,0.408,1.89,0.408,6.024h-20.036c0,0,0.125,4.161,1.966,6.677c0,0,1.835,2.516,5.691,2.516
		c0,0,3.6,0,5.746-2.375c0,0,1.225-1.377,1.731-3.191h4.521c0,0-0.18,1.509-1.188,3.355c0,0-1.008,1.852-2.261,3.028
		c0,0-2.091,2.042-5.179,2.756c0,0-1.661,0.408-3.752,0.408c0,0-5.109,0-8.66-3.715c0,0-3.545-3.714-3.545-10.403
		c0,0,0-6.584,3.572-10.696c0,0,3.572-4.112,9.346-4.112C151.807,123.977,154.715,123.977,157.448,125.344 M132.342,126.047
		c0,0,2.898,2.243,3.48,7.733h-4.465c0,0-0.409-2.527-1.863-4.199c0,0-1.454-1.672-4.673-1.672c0,0-4.39,0-6.279,4.292
		c0,0-1.226,2.778-1.226,6.862c0,0,0,4.112,1.737,6.921c0,0,1.732,2.806,5.463,2.806c0,0,2.859,0,4.531-1.748
		c0,0,1.672-1.748,2.31-4.787h4.465c0,0-0.762,5.441-3.828,7.957c0,0-3.061,2.511-7.837,2.511c0,0-5.359,0-8.551-3.917
		c0,0-3.191-3.921-3.191-9.792c0,0,0-7.2,3.496-11.208c0,0,3.497-4.009,8.91-4.009C124.821,123.797,129.445,123.797,132.342,126.047
		 M102.66,114.43h4.673v5.207h-4.673V114.43z M102.66,124.718h4.673v27.215h-4.673V124.718z M90.281,116.244
		c0,0,1.607-2.348,6.203-2.348c0,0,0.436,0,0.894,0.022c0,0,0.457,0.027,1.045,0.076v4.188c0,0-0.713-0.049-1.035-0.065
		c0,0-0.316-0.011-0.599-0.011c0,0-2.091,0-2.499,1.084c0,0-0.409,1.084-0.409,5.528h4.542v3.627h-4.596v23.588h-4.543v-23.588
		h-3.801v-3.627h3.801v-4.286C89.284,120.432,89.388,117.573,90.281,116.244 M75.755,116.244c0,0,1.607-2.348,6.203-2.348
		c0,0,0.43,0,0.893,0.022c0,0,0.458,0.027,1.046,0.076v4.188c0,0-0.713-0.049-1.035-0.065c0,0-0.316-0.011-0.599-0.011
		c0,0-2.091,0-2.5,1.084c0,0-0.408,1.084-0.408,5.528h4.542v3.627h-4.597v23.588h-4.542v-23.588h-3.807v-3.627h3.807v-4.286
		C74.759,120.432,74.863,117.573,75.755,116.244 M59.961,143.676c0,0,3.001-4.814,3.001-11.067c0,0,0-6.617-3.459-10.647
		c0,0-3.458-4.036-9.46-4.036c0,0-5.816,0-9.492,3.998c0,0-3.677,3.992-3.677,11.78c0,0,0,6.231,3.154,10.506
		c0,0,3.148,4.274,10.222,4.274C50.25,148.484,56.966,148.484,59.961,143.676 M64.443,119.789c0,0,3.731,4.978,3.731,12.739
		c0,0,0,8.403-4.265,13.969c0,0-5.005,6.536-14.274,6.536c0,0-8.654,0-13.605-5.72c0,0-4.417-5.517-4.417-13.941
		c0,0,0-7.608,3.78-13.017c0,0,4.847-6.944,14.345-6.944C49.739,113.411,59.672,113.411,64.443,119.789"/>
	<path clip-path="url(#SVGID_2_)" fill="#292C2C" d="M217.266,185.094c0,0-0.284-2.983-1.307-4.775c0,0-1.886-3.316-6.303-3.316
		c0,0-3.17,0-5.31,2.287c0,0-2.146,2.282-2.276,5.805H217.266z M215.576,174.36c0,0,2.734,1.366,4.161,3.535
		c0,0,1.378,2.068,1.841,4.824c0,0,0.408,1.891,0.408,6.024h-20.042c0,0,0.126,4.161,1.966,6.677c0,0,1.836,2.517,5.692,2.517
		c0,0,3.6,0,5.746-2.374c0,0,1.225-1.379,1.737-3.192h4.515c0,0-0.174,1.508-1.188,3.354c0,0-1.008,1.852-2.255,3.028
		c0,0-2.097,2.042-5.185,2.756c0,0-1.661,0.408-3.752,0.408c0,0-5.109,0-8.654-3.714c0,0-3.551-3.715-3.551-10.402
		c0,0,0-6.585,3.578-10.696c0,0,3.573-4.112,9.34-4.112C209.935,172.993,212.849,172.993,215.576,174.36 M174.653,173.608
		l7.304,22.259l7.631-22.259h5.031l-10.314,27.341h-4.902l-10.086-27.341H174.653z M160.794,163.446h4.673v5.207h-4.673V163.446z
		 M160.794,173.734h4.673v27.215h-4.673V173.734z M147.184,165.973h4.645v7.636h4.368v3.753h-4.368v17.842c0,0,0,1.432,0.976,1.917
		c0,0,0.534,0.278,1.786,0.278c0,0,0.333,0,0.714-0.012c0,0,0.381-0.011,0.893-0.065v3.628c0,0-0.79,0.228-1.645,0.332
		c0,0-0.855,0.103-1.852,0.103c0,0-3.219,0-4.368-1.649c0,0-1.148-1.646-1.148-4.275v-18.098h-3.698v-3.753h3.698V165.973z
		 M131.84,184.381c0,0,1.585-0.207,2.119-1.329c0,0,0.305-0.609,0.305-1.759c0,0,0-2.353-1.672-3.409c0,0-1.672-1.062-4.782-1.062
		c0,0-3.6,0-5.108,1.943c0,0-0.844,1.068-1.1,3.187h-4.287c0,0,0.126-5.054,3.279-7.031c0,0,3.153-1.977,7.314-1.977
		c0,0,4.826,0,7.838,1.836c0,0,2.989,1.84,2.989,5.718v15.751c0,0,0,0.719,0.295,1.149c0,0,0.294,0.436,1.236,0.436
		c0,0,0.305,0,0.691-0.039c0,0,0.382-0.038,0.817-0.114v3.394c0,0-1.073,0.31-1.633,0.387c0,0-0.567,0.076-1.536,0.076
		c0,0-2.375,0-3.442-1.688c0,0-0.567-0.894-0.796-2.527c0,0-1.405,1.841-4.03,3.191c0,0-2.63,1.356-5.795,1.356
		c0,0-3.806,0-6.219-2.31c0,0-2.413-2.314-2.413-5.783c0,0,0-3.808,2.375-5.898c0,0,2.374-2.092,6.23-2.577L131.84,184.381z
		 M122.168,196.815c0,0,1.454,1.148,3.442,1.148c0,0,2.429,0,4.7-1.127c0,0,3.829-1.863,3.829-6.1v-3.703
		c0,0-0.844,0.539-2.168,0.893c0,0-1.329,0.359-2.609,0.513l-2.777,0.358c0,0-2.506,0.332-3.758,1.046c0,0-2.119,1.198-2.119,3.828
		C120.708,193.672,120.708,195.666,122.168,196.815 M106.82,185.094c0,0-0.277-2.983-1.301-4.775c0,0-1.89-3.316-6.302-3.316
		c0,0-3.169,0-5.31,2.287c0,0-2.145,2.282-2.276,5.805H106.82z M105.139,174.36c0,0,2.734,1.366,4.161,3.535
		c0,0,1.377,2.068,1.84,4.824c0,0,0.409,1.891,0.409,6.024H91.506c0,0,0.125,4.161,1.966,6.677c0,0,1.835,2.517,5.691,2.517
		c0,0,3.6,0,5.746-2.374c0,0,1.225-1.379,1.737-3.192h4.515c0,0-0.18,1.508-1.187,3.354c0,0-1.008,1.852-2.26,3.028
		c0,0-2.092,2.042-5.18,2.756c0,0-1.661,0.408-3.752,0.408c0,0-5.109,0-8.654-3.714c0,0-3.551-3.715-3.551-10.402
		c0,0,0-6.585,3.573-10.696c0,0,3.578-4.112,9.345-4.112C99.496,172.993,102.404,172.993,105.139,174.36 M70.827,173.608h4.368
		v4.722c0,0,0.534-1.377,2.625-3.36c0,0,2.097-1.977,4.826-1.977c0,0,0.13,0,0.435,0.027c0,0,0.305,0.026,1.046,0.104v4.847
		c0,0-0.409-0.075-0.752-0.103c0,0-0.343-0.022-0.751-0.022c0,0-3.475,0-5.338,2.233c0,0-1.862,2.233-1.862,5.141v15.729h-4.597
		V173.608z M60.414,166.18c0,0,3.927,3.752,4.363,8.523h-4.951c0,0-0.844-3.621-3.361-5.74c0,0-2.51-2.124-7.058-2.124
		c0,0-5.539,0-8.948,3.895c0,0-3.409,3.894-3.409,11.938c0,0,0,6.585,3.077,10.68c0,0,3.077,4.102,9.177,4.102
		c0,0,5.62,0,8.556-4.313c0,0,1.557-2.275,2.32-5.975h4.956c0,0-0.664,5.92-4.395,9.929c0,0-4.466,4.825-12.047,4.825
		c0,0-6.536,0-10.98-3.954c0,0-5.844-5.233-5.844-16.164c0,0,0-8.295,4.39-13.604c0,0,4.749-5.769,13.098-5.769
		C49.357,162.427,56.481,162.427,60.414,166.18"/>
	<path clip-path="url(#SVGID_2_)" fill="#292C2C" d="M227.63,212.337h4.591v13.985c0,0,1.634-2.064,2.935-2.908
		c0,0,2.224-1.454,5.545-1.454c0,0,5.947,0,8.066,4.161c0,0,1.149,2.271,1.149,6.307v17.537h-4.723v-17.231c0,0,0-3.013-0.768-4.417
		c0,0-1.253-2.249-4.695-2.249c0,0-2.858,0-5.185,1.966c0,0-2.325,1.966-2.325,7.428v14.504h-4.591V212.337z M219.547,224.079
		c0,0,2.897,2.243,3.485,7.733h-4.466c0,0-0.408-2.527-1.868-4.199c0,0-1.454-1.672-4.667-1.672c0,0-4.395,0-6.284,4.292
		c0,0-1.227,2.777-1.227,6.861c0,0,0,4.112,1.738,6.923c0,0,1.736,2.805,5.462,2.805c0,0,2.86,0,4.532-1.748
		c0,0,1.671-1.748,2.313-4.787h4.466c0,0-0.768,5.44-3.829,7.957c0,0-3.065,2.51-7.837,2.51c0,0-5.363,0-8.556-3.916
		c0,0-3.191-3.921-3.191-9.792c0,0,0-7.2,3.503-11.208c0,0,3.495-4.009,8.909-4.009
		C212.031,221.829,216.649,221.829,219.547,224.079 M184.2,222.624h4.368v4.722c0,0,0.534-1.377,2.631-3.359
		c0,0,2.092-1.978,4.825-1.978c0,0,0.125,0,0.431,0.027c0,0,0.305,0.027,1.046,0.104v4.847c0,0-0.408-0.076-0.751-0.104
		c0,0-0.344-0.021-0.752-0.021c0,0-3.476,0-5.338,2.232c0,0-1.862,2.233-1.862,5.142v15.729H184.2V222.624z M169.648,233.397
		c0,0,1.585-0.207,2.119-1.329c0,0,0.31-0.61,0.31-1.759c0,0,0-2.354-1.672-3.409c0,0-1.672-1.062-4.787-1.062
		c0,0-3.6,0-5.108,1.944c0,0-0.838,1.068-1.094,3.186h-4.292c0,0,0.131-5.054,3.278-7.03c0,0,3.153-1.978,7.314-1.978
		c0,0,4.825,0,7.842,1.836c0,0,2.985,1.84,2.985,5.718v15.752c0,0,0,0.719,0.294,1.148c0,0,0.294,0.437,1.235,0.437
		c0,0,0.306,0,0.692-0.039c0,0,0.381-0.038,0.817-0.114v3.393c0,0-1.073,0.311-1.635,0.388c0,0-0.561,0.075-1.529,0.075
		c0,0-2.375,0-3.448-1.688c0,0-0.562-0.895-0.795-2.528c0,0-1.399,1.841-4.03,3.192c0,0-2.631,1.355-5.795,1.355
		c0,0-3.807,0-6.219-2.309c0,0-2.413-2.315-2.413-5.784c0,0,0-3.807,2.374-5.897c0,0,2.375-2.093,6.23-2.577L169.648,233.397z
		 M159.977,245.831c0,0,1.454,1.149,3.447,1.149c0,0,2.424,0,4.694-1.127c0,0,3.828-1.863,3.828-6.101v-3.703
		c0,0-0.838,0.539-2.167,0.894c0,0-1.329,0.358-2.603,0.512l-2.784,0.359c0,0-2.505,0.332-3.752,1.046c0,0-2.119,1.198-2.119,3.828
		C158.521,242.688,158.521,244.683,159.977,245.831 M144.635,234.11c0,0-0.284-2.984-1.302-4.776c0,0-1.891-3.315-6.308-3.315
		c0,0-3.17,0-5.31,2.286c0,0-2.146,2.282-2.271,5.806H144.635z M142.945,223.376c0,0,2.734,1.367,4.161,3.535
		c0,0,1.378,2.069,1.841,4.825c0,0,0.408,1.89,0.408,6.023h-20.042c0,0,0.131,4.161,1.966,6.678c0,0,1.841,2.516,5.692,2.516
		c0,0,3.6,0,5.745-2.374c0,0,1.226-1.378,1.738-3.192h4.515c0,0-0.174,1.509-1.188,3.355c0,0-1.007,1.851-2.254,3.028
		c0,0-2.097,2.042-5.185,2.756c0,0-1.661,0.408-3.753,0.408c0,0-5.103,0-8.654-3.715c0,0-3.551-3.715-3.551-10.401
		c0,0,0-6.585,3.579-10.697c0,0,3.572-4.112,9.34-4.112C137.304,222.009,140.218,222.009,142.945,223.376 M102.508,241.387
		c0,0,0.207,2.299,1.149,3.523c0,0,1.738,2.223,6.023,2.223c0,0,2.555,0,4.494-1.11c0,0,1.944-1.112,1.944-3.438
		c0,0,0-1.759-1.558-2.679c0,0-0.996-0.562-3.932-1.302l-3.649-0.92c0,0-3.502-0.866-5.157-1.94c0,0-2.963-1.862-2.963-5.157
		c0,0,0-3.878,2.794-6.279c0,0,2.794-2.401,7.521-2.401c0,0,6.176,0,8.91,3.627c0,0,1.71,2.298,1.656,4.951h-4.341
		c0,0-0.125-1.559-1.094-2.832c0,0-1.585-1.814-5.49-1.814c0,0-2.604,0-3.944,0.997c0,0-1.339,0.996-1.339,2.63
		c0,0,0,1.786,1.759,2.86c0,0,1.024,0.637,3.012,1.121l3.039,0.741c0,0,4.95,1.197,6.639,2.324c0,0,2.679,1.761,2.679,5.539
		c0,0,0,3.649-2.772,6.308c0,0-2.767,2.651-8.436,2.651c0,0-6.1,0-8.643-2.766c0,0-2.538-2.772-2.718-6.857H102.508z M89.415,234.11
		c0,0-0.283-2.984-1.307-4.776c0,0-1.884-3.315-6.301-3.315c0,0-3.17,0-5.31,2.286c0,0-2.146,2.282-2.277,5.806H89.415z
		 M87.727,223.376c0,0,2.734,1.367,4.161,3.535c0,0,1.378,2.069,1.84,4.825c0,0,0.409,1.89,0.409,6.023H74.095
		c0,0,0.125,4.161,1.966,6.678c0,0,1.835,2.516,5.691,2.516c0,0,3.6,0,5.746-2.374c0,0,1.225-1.378,1.737-3.192h4.515
		c0,0-0.174,1.509-1.187,3.355c0,0-1.007,1.851-2.255,3.028c0,0-2.097,2.042-5.184,2.756c0,0-1.661,0.408-3.753,0.408
		c0,0-5.109,0-8.654-3.715c0,0-3.551-3.715-3.551-10.401c0,0,0-6.585,3.578-10.697c0,0,3.573-4.112,9.34-4.112
		C82.083,222.009,84.998,222.009,87.727,223.376 M34.167,212.462h17.358c0,0,4.291,0,7.074,1.253c0,0,5.283,2.396,5.283,8.855
		c0,0,0,3.371-1.388,5.517c0,0-1.395,2.146-3.895,3.448c0,0,2.195,0.893,3.306,2.347c0,0,1.111,1.454,1.237,4.723l0.179,5.026
		c0,0,0.076,2.146,0.36,3.191c0,0,0.457,1.792,1.634,2.299v0.844h-6.231c0,0-0.256-0.484-0.408-1.253c0,0-0.153-0.763-0.256-2.958
		l-0.305-6.257c0,0-0.18-3.676-2.734-4.929c0,0-1.454-0.687-4.57-0.687H39.25v16.083h-5.082V212.462z M50.992,229.646
		c0,0,3.573,0,5.653-1.434c0,0,2.08-1.426,2.08-5.157c0,0,0-4.008-2.908-5.463c0,0-1.557-0.762-4.161-0.762H39.25v12.815H50.992z"/>
	<path clip-path="url(#SVGID_2_)" fill="#A5A7A9" d="M223.719,124.592h4.368v4.722c0,0,0.534-1.378,2.631-3.361
		c0,0,2.091-1.977,4.825-1.977c0,0,0.125,0,0.43,0.028c0,0,0.311,0.027,1.051,0.103v4.847c0,0-0.407-0.076-0.757-0.103
		c0,0-0.343-0.022-0.751-0.022c0,0-3.47,0-5.338,2.233c0,0-1.862,2.233-1.862,5.141v15.729h-4.597V124.592z M214.481,127.321
		c0,0,3.649,3.523,3.649,10.364c0,0,0,6.611-3.218,10.93c0,0-3.214,4.314-9.983,4.314c0,0-5.637,0-8.96-3.818
		c0,0-3.315-3.818-3.315-10.25c0,0,0-6.895,3.495-10.98c0,0,3.497-4.084,9.396-4.084
		C205.545,123.797,210.828,123.797,214.481,127.321 M211.634,145.512c0,0,1.699-3.458,1.699-7.696c0,0,0-3.828-1.226-6.23
		c0,0-1.944-3.78-6.688-3.78c0,0-4.216,0-6.127,3.219c0,0-1.917,3.219-1.917,7.761c0,0,0,4.362,1.917,7.276
		c0,0,1.911,2.908,6.072,2.908C205.365,148.97,209.935,148.97,211.634,145.512 M182.137,116.244c0,0,1.607-2.347,6.203-2.347
		c0,0,0.431,0,0.895,0.021c0,0,0.456,0.028,1.045,0.076v4.189c0,0-0.714-0.049-1.035-0.065c0,0-0.321-0.011-0.6-0.011
		c0,0-2.096,0-2.505,1.083c0,0-0.408,1.084-0.408,5.528h4.548v3.627h-4.597v23.588h-4.543v-23.588h-3.806v-3.627h3.806v-4.286
		C181.14,120.432,181.238,117.572,182.137,116.244"/>
</g>
</svg>
